<svg xmlns="http://www.w3.org/2000/svg" viewBox="0 0 1200 640" role="img"><defs><symbol id="lo" overflow="visible"><path d="M0,-30 C16,-16 16,16 0,30 C-16,16 -16,-16 0,-30Z"/><path d="M0,-27 L0,27" stroke="#2b1a0a" stroke-opacity=".35" stroke-width="1.2" fill="none"/></symbol>
<symbol id="lr" overflow="visible"><path d="M0,-30 C27,-18 27,12 0,27 C-27,12 -27,-18 0,-30Z"/><path d="M0,-27 L0,25" stroke="#2b1a0a" stroke-opacity=".35" stroke-width="1.2" fill="none"/></symbol>
<symbol id="ls" overflow="visible"><path d="M0,-30 L7,-11 L28,-9 L12,4 L18,26 L0,14 L-18,26 L-12,4 L-28,-9 L-7,-11Z"/><path d="M0,-26 L0,20" stroke="#2b1a0a" stroke-opacity=".35" stroke-width="1.2" fill="none"/></symbol>
<linearGradient id="sky" x1="0" y1="0" x2="0" y2="1"><stop offset="0" stop-color="#9fb4c2"/><stop offset="1" stop-color="#cfd9df"/></linearGradient>
<linearGradient id="siding" x1="0" y1="0" x2="0" y2="1"><stop offset="0" stop-color="#c9d1d4"/><stop offset="1" stop-color="#aeb8bd"/></linearGradient>
<linearGradient id="shingle" x1="0" y1="0" x2="0" y2="1"><stop offset="0" stop-color="#4a4e52"/><stop offset="1" stop-color="#2d3134"/></linearGradient>
<linearGradient id="fascia" x1="0" y1="0" x2="0" y2="1"><stop offset="0" stop-color="#f4f2ec"/><stop offset="1" stop-color="#dcd9d0"/></linearGradient>
<linearGradient id="alu" x1="0" y1="0" x2="0" y2="1"><stop offset="0" stop-color="#ffffff"/><stop offset=".18" stop-color="#eef1f2"/><stop offset=".5" stop-color="#d9dfe1"/><stop offset=".78" stop-color="#f6f8f8"/><stop offset="1" stop-color="#b9c2c6"/></linearGradient>
<linearGradient id="inner" x1="0" y1="0" x2="0" y2="1"><stop offset="0" stop-color="#8d979b"/><stop offset=".5" stop-color="#c3cbce"/><stop offset="1" stop-color="#e7ecee"/></linearGradient>
<linearGradient id="innerdirty" x1="0" y1="0" x2="0" y2="1"><stop offset="0" stop-color="#1c1509"/><stop offset="1" stop-color="#3a2c16"/></linearGradient>
<linearGradient id="stain" x1="0" y1="0" x2="0" y2="1"><stop offset="0" stop-color="#2a1e0e"/><stop offset="1" stop-color="#2a1e0e" stop-opacity="0"/></linearGradient>
<linearGradient id="rim" x1="0" y1="0" x2="0" y2="1"><stop offset="0" stop-color="#ffffff"/><stop offset="1" stop-color="#c9d1d4"/></linearGradient>
<filter id="grain" x="0" y="0" width="100%" height="100%"><feTurbulence type="fractalNoise" baseFrequency=".9" numOctaves="2" seed="4" result="n"/><feColorMatrix in="n" type="matrix" values="0 0 0 0 0  0 0 0 0 0  0 0 0 0 0  0 0 0 .09 0"/><feComposite in2="SourceGraphic" operator="in"/></filter>
<filter id="soft"><feGaussianBlur stdDeviation="2.2"/></filter>
<filter id="blur8"><feGaussianBlur stdDeviation="9"/></filter>
<filter id="blurbg"><feGaussianBlur stdDeviation="3.2"/></filter>
<filter id="rough" x="-5%" y="-5%" width="110%" height="110%"><feTurbulence type="fractalNoise" baseFrequency=".035" numOctaves="3" seed="7" result="t"/><feDisplacementMap in="SourceGraphic" in2="t" scale="10"/></filter>
<filter id="shadow" x="-10%" y="-10%" width="120%" height="140%"><feDropShadow dx="0" dy="3" stdDeviation="3" flood-color="#000" flood-opacity=".45"/></filter>
<filter id="tex"><feTurbulence type="fractalNoise" baseFrequency=".6 .04" numOctaves="3" seed="2"/><feColorMatrix type="matrix" values="0 0 0 0 .3  0 0 0 0 .25  0 0 0 0 .2  0 0 0 .5 -.12"/></filter></defs><rect width="1200" height="640" fill="url(#siding)"/><g filter="url(#blurbg)"><rect x="0" y="560" width="1200" height="26" fill="#c6cfd3" stroke="#a9b3b8" stroke-width="2"/><rect x="0" y="588" width="1200" height="26" fill="#c6cfd3" stroke="#a9b3b8" stroke-width="2"/><rect x="0" y="616" width="1200" height="26" fill="#c6cfd3" stroke="#a9b3b8" stroke-width="2"/><rect x="0" y="644" width="1200" height="26" fill="#c6cfd3" stroke="#a9b3b8" stroke-width="2"/><rect x="0" y="672" width="1200" height="26" fill="#c6cfd3" stroke="#a9b3b8" stroke-width="2"/><rect x="0" y="700" width="1200" height="26" fill="#c6cfd3" stroke="#a9b3b8" stroke-width="2"/><rect x="0" y="728" width="1200" height="26" fill="#c6cfd3" stroke="#a9b3b8" stroke-width="2"/><rect x="0" y="756" width="1200" height="26" fill="#c6cfd3" stroke="#a9b3b8" stroke-width="2"/><rect x="0" y="784" width="1200" height="26" fill="#c6cfd3" stroke="#a9b3b8" stroke-width="2"/><rect x="0" y="812" width="1200" height="26" fill="#c6cfd3" stroke="#a9b3b8" stroke-width="2"/></g><g filter="url(#blurbg)"><rect x="0" y="0" width="1200" height="205" fill="url(#shingle)"/><rect x="-84" y="0" width="82" height="24" rx="3" fill="#50555a" stroke="#22262a" stroke-width="1.5"/><rect x="0" y="0" width="82" height="24" rx="3" fill="#464b50" stroke="#22262a" stroke-width="1.5"/><rect x="84" y="0" width="82" height="24" rx="3" fill="#3d4247" stroke="#22262a" stroke-width="1.5"/><rect x="168" y="0" width="82" height="24" rx="3" fill="#464b50" stroke="#22262a" stroke-width="1.5"/><rect x="252" y="0" width="82" height="24" rx="3" fill="#363b40" stroke="#22262a" stroke-width="1.5"/><rect x="336" y="0" width="82" height="24" rx="3" fill="#3d4247" stroke="#22262a" stroke-width="1.5"/><rect x="420" y="0" width="82" height="24" rx="3" fill="#3d4247" stroke="#22262a" stroke-width="1.5"/><rect x="504" y="0" width="82" height="24" rx="3" fill="#464b50" stroke="#22262a" stroke-width="1.5"/><rect x="588" y="0" width="82" height="24" rx="3" fill="#3d4247" stroke="#22262a" stroke-width="1.5"/><rect x="672" y="0" width="82" height="24" rx="3" fill="#50555a" stroke="#22262a" stroke-width="1.5"/><rect x="756" y="0" width="82" height="24" rx="3" fill="#464b50" stroke="#22262a" stroke-width="1.5"/><rect x="840" y="0" width="82" height="24" rx="3" fill="#464b50" stroke="#22262a" stroke-width="1.5"/><rect x="924" y="0" width="82" height="24" rx="3" fill="#50555a" stroke="#22262a" stroke-width="1.5"/><rect x="1008" y="0" width="82" height="24" rx="3" fill="#3d4247" stroke="#22262a" stroke-width="1.5"/><rect x="1092" y="0" width="82" height="24" rx="3" fill="#363b40" stroke="#22262a" stroke-width="1.5"/><rect x="1176" y="0" width="82" height="24" rx="3" fill="#363b40" stroke="#22262a" stroke-width="1.5"/><rect x="1260" y="0" width="82" height="24" rx="3" fill="#3d4247" stroke="#22262a" stroke-width="1.5"/><rect x="-42" y="26" width="82" height="24" rx="3" fill="#50555a" stroke="#22262a" stroke-width="1.5"/><rect x="42" y="26" width="82" height="24" rx="3" fill="#3d4247" stroke="#22262a" stroke-width="1.5"/><rect x="126" y="26" width="82" height="24" rx="3" fill="#50555a" stroke="#22262a" stroke-width="1.5"/><rect x="210" y="26" width="82" height="24" rx="3" fill="#50555a" stroke="#22262a" stroke-width="1.5"/><rect x="294" y="26" width="82" height="24" rx="3" fill="#363b40" stroke="#22262a" stroke-width="1.5"/><rect x="378" y="26" width="82" height="24" rx="3" fill="#50555a" stroke="#22262a" stroke-width="1.5"/><rect x="462" y="26" width="82" height="24" rx="3" fill="#464b50" stroke="#22262a" stroke-width="1.5"/><rect x="546" y="26" width="82" height="24" rx="3" fill="#363b40" stroke="#22262a" stroke-width="1.5"/><rect x="630" y="26" width="82" height="24" rx="3" fill="#3d4247" stroke="#22262a" stroke-width="1.5"/><rect x="714" y="26" width="82" height="24" rx="3" fill="#363b40" stroke="#22262a" stroke-width="1.5"/><rect x="798" y="26" width="82" height="24" rx="3" fill="#363b40" stroke="#22262a" stroke-width="1.5"/><rect x="882" y="26" width="82" height="24" rx="3" fill="#3d4247" stroke="#22262a" stroke-width="1.5"/><rect x="966" y="26" width="82" height="24" rx="3" fill="#50555a" stroke="#22262a" stroke-width="1.5"/><rect x="1050" y="26" width="82" height="24" rx="3" fill="#464b50" stroke="#22262a" stroke-width="1.5"/><rect x="1134" y="26" width="82" height="24" rx="3" fill="#3d4247" stroke="#22262a" stroke-width="1.5"/><rect x="1218" y="26" width="82" height="24" rx="3" fill="#50555a" stroke="#22262a" stroke-width="1.5"/><rect x="1302" y="26" width="82" height="24" rx="3" fill="#464b50" stroke="#22262a" stroke-width="1.5"/><rect x="-84" y="52" width="82" height="24" rx="3" fill="#464b50" stroke="#22262a" stroke-width="1.5"/><rect x="0" y="52" width="82" height="24" rx="3" fill="#3d4247" stroke="#22262a" stroke-width="1.5"/><rect x="84" y="52" width="82" height="24" rx="3" fill="#363b40" stroke="#22262a" stroke-width="1.5"/><rect x="168" y="52" width="82" height="24" rx="3" fill="#50555a" stroke="#22262a" stroke-width="1.5"/><rect x="252" y="52" width="82" height="24" rx="3" fill="#50555a" stroke="#22262a" stroke-width="1.5"/><rect x="336" y="52" width="82" height="24" rx="3" fill="#363b40" stroke="#22262a" stroke-width="1.5"/><rect x="420" y="52" width="82" height="24" rx="3" fill="#50555a" stroke="#22262a" stroke-width="1.5"/><rect x="504" y="52" width="82" height="24" rx="3" fill="#50555a" stroke="#22262a" stroke-width="1.5"/><rect x="588" y="52" width="82" height="24" rx="3" fill="#464b50" stroke="#22262a" stroke-width="1.5"/><rect x="672" y="52" width="82" height="24" rx="3" fill="#3d4247" stroke="#22262a" stroke-width="1.5"/><rect x="756" y="52" width="82" height="24" rx="3" fill="#50555a" stroke="#22262a" stroke-width="1.5"/><rect x="840" y="52" width="82" height="24" rx="3" fill="#363b40" stroke="#22262a" stroke-width="1.5"/><rect x="924" y="52" width="82" height="24" rx="3" fill="#3d4247" stroke="#22262a" stroke-width="1.5"/><rect x="1008" y="52" width="82" height="24" rx="3" fill="#3d4247" stroke="#22262a" stroke-width="1.5"/><rect x="1092" y="52" width="82" height="24" rx="3" fill="#3d4247" stroke="#22262a" stroke-width="1.5"/><rect x="1176" y="52" width="82" height="24" rx="3" fill="#50555a" stroke="#22262a" stroke-width="1.5"/><rect x="1260" y="52" width="82" height="24" rx="3" fill="#363b40" stroke="#22262a" stroke-width="1.5"/><rect x="-42" y="78" width="82" height="24" rx="3" fill="#363b40" stroke="#22262a" stroke-width="1.5"/><rect x="42" y="78" width="82" height="24" rx="3" fill="#50555a" stroke="#22262a" stroke-width="1.5"/><rect x="126" y="78" width="82" height="24" rx="3" fill="#3d4247" stroke="#22262a" stroke-width="1.5"/><rect x="210" y="78" width="82" height="24" rx="3" fill="#50555a" stroke="#22262a" stroke-width="1.5"/><rect x="294" y="78" width="82" height="24" rx="3" fill="#50555a" stroke="#22262a" stroke-width="1.5"/><rect x="378" y="78" width="82" height="24" rx="3" fill="#3d4247" stroke="#22262a" stroke-width="1.5"/><rect x="462" y="78" width="82" height="24" rx="3" fill="#363b40" stroke="#22262a" stroke-width="1.5"/><rect x="546" y="78" width="82" height="24" rx="3" fill="#363b40" stroke="#22262a" stroke-width="1.5"/><rect x="630" y="78" width="82" height="24" rx="3" fill="#50555a" stroke="#22262a" stroke-width="1.5"/><rect x="714" y="78" width="82" height="24" rx="3" fill="#50555a" stroke="#22262a" stroke-width="1.5"/><rect x="798" y="78" width="82" height="24" rx="3" fill="#363b40" stroke="#22262a" stroke-width="1.5"/><rect x="882" y="78" width="82" height="24" rx="3" fill="#363b40" stroke="#22262a" stroke-width="1.5"/><rect x="966" y="78" width="82" height="24" rx="3" fill="#464b50" stroke="#22262a" stroke-width="1.5"/><rect x="1050" y="78" width="82" height="24" rx="3" fill="#464b50" stroke="#22262a" stroke-width="1.5"/><rect x="1134" y="78" width="82" height="24" rx="3" fill="#50555a" stroke="#22262a" stroke-width="1.5"/><rect x="1218" y="78" width="82" height="24" rx="3" fill="#363b40" stroke="#22262a" stroke-width="1.5"/><rect x="1302" y="78" width="82" height="24" rx="3" fill="#3d4247" stroke="#22262a" stroke-width="1.5"/><rect x="-84" y="104" width="82" height="24" rx="3" fill="#50555a" stroke="#22262a" stroke-width="1.5"/><rect x="0" y="104" width="82" height="24" rx="3" fill="#3d4247" stroke="#22262a" stroke-width="1.5"/><rect x="84" y="104" width="82" height="24" rx="3" fill="#3d4247" stroke="#22262a" stroke-width="1.5"/><rect x="168" y="104" width="82" height="24" rx="3" fill="#50555a" stroke="#22262a" stroke-width="1.5"/><rect x="252" y="104" width="82" height="24" rx="3" fill="#50555a" stroke="#22262a" stroke-width="1.5"/><rect x="336" y="104" width="82" height="24" rx="3" fill="#3d4247" stroke="#22262a" stroke-width="1.5"/><rect x="420" y="104" width="82" height="24" rx="3" fill="#363b40" stroke="#22262a" stroke-width="1.5"/><rect x="504" y="104" width="82" height="24" rx="3" fill="#464b50" stroke="#22262a" stroke-width="1.5"/><rect x="588" y="104" width="82" height="24" rx="3" fill="#363b40" stroke="#22262a" stroke-width="1.5"/><rect x="672" y="104" width="82" height="24" rx="3" fill="#50555a" stroke="#22262a" stroke-width="1.5"/><rect x="756" y="104" width="82" height="24" rx="3" fill="#363b40" stroke="#22262a" stroke-width="1.5"/><rect x="840" y="104" width="82" height="24" rx="3" fill="#363b40" stroke="#22262a" stroke-width="1.5"/><rect x="924" y="104" width="82" height="24" rx="3" fill="#464b50" stroke="#22262a" stroke-width="1.5"/><rect x="1008" y="104" width="82" height="24" rx="3" fill="#3d4247" stroke="#22262a" stroke-width="1.5"/><rect x="1092" y="104" width="82" height="24" rx="3" fill="#464b50" stroke="#22262a" stroke-width="1.5"/><rect x="1176" y="104" width="82" height="24" rx="3" fill="#50555a" stroke="#22262a" stroke-width="1.5"/><rect x="1260" y="104" width="82" height="24" rx="3" fill="#363b40" stroke="#22262a" stroke-width="1.5"/><rect x="-42" y="130" width="82" height="24" rx="3" fill="#50555a" stroke="#22262a" stroke-width="1.5"/><rect x="42" y="130" width="82" height="24" rx="3" fill="#363b40" stroke="#22262a" stroke-width="1.5"/><rect x="126" y="130" width="82" height="24" rx="3" fill="#363b40" stroke="#22262a" stroke-width="1.5"/><rect x="210" y="130" width="82" height="24" rx="3" fill="#363b40" stroke="#22262a" stroke-width="1.5"/><rect x="294" y="130" width="82" height="24" rx="3" fill="#50555a" stroke="#22262a" stroke-width="1.5"/><rect x="378" y="130" width="82" height="24" rx="3" fill="#363b40" stroke="#22262a" stroke-width="1.5"/><rect x="462" y="130" width="82" height="24" rx="3" fill="#363b40" stroke="#22262a" stroke-width="1.5"/><rect x="546" y="130" width="82" height="24" rx="3" fill="#363b40" stroke="#22262a" stroke-width="1.5"/><rect x="630" y="130" width="82" height="24" rx="3" fill="#3d4247" stroke="#22262a" stroke-width="1.5"/><rect x="714" y="130" width="82" height="24" rx="3" fill="#50555a" stroke="#22262a" stroke-width="1.5"/><rect x="798" y="130" width="82" height="24" rx="3" fill="#363b40" stroke="#22262a" stroke-width="1.5"/><rect x="882" y="130" width="82" height="24" rx="3" fill="#3d4247" stroke="#22262a" stroke-width="1.5"/><rect x="966" y="130" width="82" height="24" rx="3" fill="#50555a" stroke="#22262a" stroke-width="1.5"/><rect x="1050" y="130" width="82" height="24" rx="3" fill="#464b50" stroke="#22262a" stroke-width="1.5"/><rect x="1134" y="130" width="82" height="24" rx="3" fill="#50555a" stroke="#22262a" stroke-width="1.5"/><rect x="1218" y="130" width="82" height="24" rx="3" fill="#50555a" stroke="#22262a" stroke-width="1.5"/><rect x="1302" y="130" width="82" height="24" rx="3" fill="#3d4247" stroke="#22262a" stroke-width="1.5"/><rect x="-84" y="156" width="82" height="24" rx="3" fill="#363b40" stroke="#22262a" stroke-width="1.5"/><rect x="0" y="156" width="82" height="24" rx="3" fill="#464b50" stroke="#22262a" stroke-width="1.5"/><rect x="84" y="156" width="82" height="24" rx="3" fill="#363b40" stroke="#22262a" stroke-width="1.5"/><rect x="168" y="156" width="82" height="24" rx="3" fill="#464b50" stroke="#22262a" stroke-width="1.5"/><rect x="252" y="156" width="82" height="24" rx="3" fill="#3d4247" stroke="#22262a" stroke-width="1.5"/><rect x="336" y="156" width="82" height="24" rx="3" fill="#363b40" stroke="#22262a" stroke-width="1.5"/><rect x="420" y="156" width="82" height="24" rx="3" fill="#464b50" stroke="#22262a" stroke-width="1.5"/><rect x="504" y="156" width="82" height="24" rx="3" fill="#50555a" stroke="#22262a" stroke-width="1.5"/><rect x="588" y="156" width="82" height="24" rx="3" fill="#464b50" stroke="#22262a" stroke-width="1.5"/><rect x="672" y="156" width="82" height="24" rx="3" fill="#3d4247" stroke="#22262a" stroke-width="1.5"/><rect x="756" y="156" width="82" height="24" rx="3" fill="#363b40" stroke="#22262a" stroke-width="1.5"/><rect x="840" y="156" width="82" height="24" rx="3" fill="#50555a" stroke="#22262a" stroke-width="1.5"/><rect x="924" y="156" width="82" height="24" rx="3" fill="#464b50" stroke="#22262a" stroke-width="1.5"/><rect x="1008" y="156" width="82" height="24" rx="3" fill="#464b50" stroke="#22262a" stroke-width="1.5"/><rect x="1092" y="156" width="82" height="24" rx="3" fill="#464b50" stroke="#22262a" stroke-width="1.5"/><rect x="1176" y="156" width="82" height="24" rx="3" fill="#50555a" stroke="#22262a" stroke-width="1.5"/><rect x="1260" y="156" width="82" height="24" rx="3" fill="#50555a" stroke="#22262a" stroke-width="1.5"/><rect x="-42" y="182" width="82" height="24" rx="3" fill="#363b40" stroke="#22262a" stroke-width="1.5"/><rect x="42" y="182" width="82" height="24" rx="3" fill="#50555a" stroke="#22262a" stroke-width="1.5"/><rect x="126" y="182" width="82" height="24" rx="3" fill="#363b40" stroke="#22262a" stroke-width="1.5"/><rect x="210" y="182" width="82" height="24" rx="3" fill="#464b50" stroke="#22262a" stroke-width="1.5"/><rect x="294" y="182" width="82" height="24" rx="3" fill="#464b50" stroke="#22262a" stroke-width="1.5"/><rect x="378" y="182" width="82" height="24" rx="3" fill="#464b50" stroke="#22262a" stroke-width="1.5"/><rect x="462" y="182" width="82" height="24" rx="3" fill="#50555a" stroke="#22262a" stroke-width="1.5"/><rect x="546" y="182" width="82" height="24" rx="3" fill="#50555a" stroke="#22262a" stroke-width="1.5"/><rect x="630" y="182" width="82" height="24" rx="3" fill="#50555a" stroke="#22262a" stroke-width="1.5"/><rect x="714" y="182" width="82" height="24" rx="3" fill="#50555a" stroke="#22262a" stroke-width="1.5"/><rect x="798" y="182" width="82" height="24" rx="3" fill="#3d4247" stroke="#22262a" stroke-width="1.5"/><rect x="882" y="182" width="82" height="24" rx="3" fill="#363b40" stroke="#22262a" stroke-width="1.5"/><rect x="966" y="182" width="82" height="24" rx="3" fill="#464b50" stroke="#22262a" stroke-width="1.5"/><rect x="1050" y="182" width="82" height="24" rx="3" fill="#363b40" stroke="#22262a" stroke-width="1.5"/><rect x="1134" y="182" width="82" height="24" rx="3" fill="#464b50" stroke="#22262a" stroke-width="1.5"/><rect x="1218" y="182" width="82" height="24" rx="3" fill="#3d4247" stroke="#22262a" stroke-width="1.5"/><rect x="1302" y="182" width="82" height="24" rx="3" fill="#3d4247" stroke="#22262a" stroke-width="1.5"/></g><rect x="0" y="200" width="1200" height="14" fill="#8c979c"/><rect x="0" y="214" width="1200" height="120" fill="url(#fascia)"/><rect x="0" y="214" width="1200" height="120" filter="url(#tex)" opacity=".5"/><rect x="0" y="330" width="1200" height="10" fill="#000" opacity=".25" filter="url(#soft)"/><rect x="0" y="322" width="1200" height="34" fill="#dfe5e7"/><rect x="0" y="322" width="1200" height="5" fill="#fff"/><path d="M0,352 L1200,352 L1200,470 L0,470 Z" fill="url(#inner)"/><rect x="0" y="352" width="1200" height="14" fill="#000" opacity=".22" filter="url(#soft)"/><rect x="0" y="426" width="1200" height="8" fill="#fff" opacity=".55" filter="url(#soft)"/><ellipse cx="930" cy="430" rx="52" ry="24" fill="#1e262a"/><ellipse cx="930" cy="426" rx="46" ry="19" fill="#0f1518"/><ellipse cx="930" cy="424" rx="52" ry="24" fill="none" stroke="#f2f5f6" stroke-width="5"/><ellipse cx="525" cy="428" rx="2.8" ry="2.0" fill="#fff" opacity=".85"/><ellipse cx="526" cy="430" rx="2.3" ry="1.1" fill="#7d8a90" opacity=".5"/><ellipse cx="785" cy="396" rx="3.4" ry="2.4" fill="#fff" opacity=".85"/><ellipse cx="786" cy="397" rx="2.7" ry="1.4" fill="#7d8a90" opacity=".5"/><ellipse cx="905" cy="415" rx="3.3" ry="2.3" fill="#fff" opacity=".85"/><ellipse cx="906" cy="417" rx="2.7" ry="1.3" fill="#7d8a90" opacity=".5"/><ellipse cx="450" cy="454" rx="2.2" ry="1.6" fill="#fff" opacity=".85"/><ellipse cx="451" cy="455" rx="1.8" ry="0.9" fill="#7d8a90" opacity=".5"/><ellipse cx="154" cy="406" rx="2.4" ry="1.7" fill="#fff" opacity=".85"/><ellipse cx="155" cy="407" rx="1.9" ry="1.0" fill="#7d8a90" opacity=".5"/><ellipse cx="1003" cy="441" rx="4.5" ry="3.2" fill="#fff" opacity=".85"/><ellipse cx="1004" cy="444" rx="3.6" ry="1.8" fill="#7d8a90" opacity=".5"/><ellipse cx="468" cy="399" rx="3.0" ry="2.1" fill="#fff" opacity=".85"/><ellipse cx="469" cy="400" rx="2.4" ry="1.2" fill="#7d8a90" opacity=".5"/><ellipse cx="329" cy="403" rx="2.4" ry="1.7" fill="#fff" opacity=".85"/><ellipse cx="330" cy="404" rx="1.9" ry="1.0" fill="#7d8a90" opacity=".5"/><ellipse cx="497" cy="409" rx="2.1" ry="1.4" fill="#fff" opacity=".85"/><ellipse cx="498" cy="410" rx="1.6" ry="0.8" fill="#7d8a90" opacity=".5"/><ellipse cx="647" cy="423" rx="3.2" ry="2.2" fill="#fff" opacity=".85"/><ellipse cx="648" cy="424" rx="2.5" ry="1.3" fill="#7d8a90" opacity=".5"/><ellipse cx="1106" cy="449" rx="4.7" ry="3.3" fill="#fff" opacity=".85"/><ellipse cx="1107" cy="451" rx="3.8" ry="1.9" fill="#7d8a90" opacity=".5"/><ellipse cx="363" cy="414" rx="2.8" ry="2.0" fill="#fff" opacity=".85"/><ellipse cx="364" cy="416" rx="2.3" ry="1.1" fill="#7d8a90" opacity=".5"/><ellipse cx="266" cy="441" rx="2.0" ry="1.4" fill="#fff" opacity=".85"/><ellipse cx="267" cy="442" rx="1.6" ry="0.8" fill="#7d8a90" opacity=".5"/><ellipse cx="256" cy="418" rx="5.0" ry="3.5" fill="#fff" opacity=".85"/><ellipse cx="257" cy="420" rx="4.0" ry="2.0" fill="#7d8a90" opacity=".5"/><rect x="300" y="352" width="26" height="120" fill="#c4ccd0" opacity=".85"/><rect x="640" y="352" width="26" height="120" fill="#c4ccd0" opacity=".85"/><path d="M0,470 Q0,462 12,462 L1188,462 Q1200,462 1200,470 L1200,492 L0,492 Z" fill="url(#rim)"/><rect x="0" y="462" width="1200" height="4" fill="#fff" opacity=".9"/><rect x="0" y="490" width="1200" height="150" fill="url(#alu)"/><path d="M0,528 Q600,542 1200,528 L1200,538 Q600,552 0,538 Z" fill="#fff" opacity=".55"/><path d="M0,590 Q600,604 1200,590 L1200,600 Q600,614 0,600 Z" fill="#8f9ba0" opacity=".35"/><rect x="0" y="636" width="1200" height="8" fill="#98a3a8"/><rect x="0" y="500" width="1200" height="14" fill="#fff" opacity=".55" filter="url(#soft)"/><rect x="0" y="644" width="1200" height="30" fill="#000" opacity=".18" filter="url(#soft)"/><rect width="1200" height="640" fill="#808080" filter="url(#grain)"/><radialGradient id="vg" cx=".5" cy=".5" r=".75"><stop offset=".6" stop-color="#000" stop-opacity="0"/><stop offset="1" stop-color="#000" stop-opacity=".28"/></radialGradient><rect width="1200" height="640" fill="url(#vg)"/></svg>
